# Blender v2.79 (sub 1) OBJ File: ''
# www.blender.org
mtllib bloodaltar.mtl
o headusOBJexport002
v -4.500000 -0.000301 7.000000
v 4.500000 -0.000301 7.000000
v 4.017200 7.999999 6.248302
v -4.017200 7.999999 6.248302
v 6.937900 -0.000301 4.499400
v 7.019900 -0.000299 -4.499800
v 6.260000 8.000001 -4.017699
v 6.186800 8.000000 4.015902
v -4.017200 8.000001 -6.249599
v 4.017200 8.000001 -6.249599
v 4.500000 -0.000299 -7.000000
v -4.500000 -0.000299 -7.000000
v -6.248900 8.000000 4.016501
v -6.248900 8.000001 -4.062199
v -7.000000 -0.000299 -4.549700
v -7.000000 -0.000301 4.500000
v -5.643700 -0.000299 -7.721900
v -7.698300 -0.000299 -5.708200
v -6.996700 8.000001 -5.252799
v -5.192700 8.000001 -7.020998
v -5.200200 7.999999 7.007902
v -7.008600 7.999999 5.199602
v -7.710200 -0.000301 5.651200
v -5.651300 -0.000301 7.710100
v 5.651300 -0.000301 7.710100
v 7.710200 -0.000301 5.651200
v 7.008600 7.999999 5.199602
v 5.200200 7.999999 7.007902
v 7.710200 -0.000299 -5.651300
v 5.651300 -0.000299 -7.710200
v 5.200300 8.000001 -7.009199
v 7.008600 8.000001 -5.200899
v 1.791200 8.000000 3.281701
v -1.791000 8.000000 3.281701
v 3.285700 8.000000 -1.794999
v 3.285700 8.000000 1.787201
v -1.790600 8.000001 -3.289699
v 1.791200 8.000001 -3.289499
v -3.285500 8.000000 1.787201
v -3.285300 8.000000 -1.814699
v -1.284500 6.500000 2.059001
v -1.288900 6.500000 -2.066799
v -2.062600 6.500000 -1.303299
v -2.062700 6.500000 1.280801
v 1.284600 6.500000 2.059001
v 2.062900 6.500000 1.280801
v 2.062900 6.500000 -1.288499
v 1.284700 6.500000 -2.066699
vt 0.142219 0.579166
vt 0.071593 0.664343
vt 0.071593 0.579166
vt 0.203856 0.579166
vt 0.266442 0.664343
vt 0.203856 0.664343
vt 0.328456 0.663482
vt 0.390285 0.579793
vt 0.390285 0.663482
vt 0.454082 0.663482
vt 0.515562 0.579793
vt 0.515562 0.663482
vt 0.142219 0.664343
vt 0.266442 0.579166
vt 0.328456 0.579793
vt 0.454082 0.579793
vt 0.406242 0.579793
vt 0.438158 0.663482
vt 0.406242 0.663482
vt 0.563401 0.663482
vt 0.531486 0.579793
vt 0.563401 0.579793
vt 0.188471 0.579166
vt 0.157968 0.664343
vt 0.157636 0.579166
vt 0.312662 0.579166
vt 0.281827 0.664343
vt 0.281827 0.579166
vt 0.267989 0.880584
vt 0.241404 0.889455
vt 0.259118 0.871742
vt 0.250275 0.973602
vt 0.259118 1.000158
vt 0.241404 0.982445
vt 0.365400 0.973602
vt 0.356557 1.000158
vt 0.347686 0.991316
vt 0.347686 0.880584
vt 0.374271 0.889455
vt 0.365400 0.898298
vt 0.343267 0.888747
vt 0.298333 0.911901
vt 0.280974 0.888986
vt 0.337830 0.951100
vt 0.360148 0.905986
vt 0.360955 0.968249
vt 0.298542 0.962841
vt 0.343626 0.985608
vt 0.281363 0.985847
vt 0.263765 0.906344
vt 0.286890 0.951458
vt 0.264004 0.968966
vt 0.326088 0.911811
vt 0.366781 0.977391
vt 0.352828 0.991463
vt 0.531486 0.663482
vt 0.328080 0.579166
vt 0.312662 0.664343
vt 0.272280 0.991882
vt 0.258238 0.978228
vt 0.438158 0.579793
vt 0.271802 0.883130
vt 0.579359 0.579793
vt 0.352410 0.882831
vt 0.366482 0.896783
vt 0.302366 0.953340
vt 0.296271 0.927437
vt 0.302276 0.921372
vt 0.322204 0.921312
vt 0.328269 0.927318
vt 0.337710 0.923344
vt 0.328329 0.947216
vt 0.326297 0.962752
vt 0.322324 0.953281
vt 0.296361 0.947455
vt 0.286800 0.923553
vt 0.267989 0.991316
vt 0.188471 0.664343
vt 0.250275 0.898298
vt 0.374271 0.982445
vt 0.356557 0.871742
vt 0.328080 0.664343
vt 0.257820 0.897202
vt 0.579359 0.663482
vn 0.0000 0.0935 0.9956
vn 0.9955 0.0940 0.0091
vn 0.0000 0.0934 -0.9956
vn -0.9956 0.0935 0.0000
vn -0.1003 -0.5532 -0.8270
vn -0.9910 0.0949 -0.0948
vn -0.0736 0.0919 -0.9930
vn -0.0847 0.0944 0.9919
vn -0.8251 -0.5535 0.1137
vn -0.1144 -0.5541 0.8245
vn 0.8270 -0.5532 0.0996
vn 0.0838 0.0927 0.9922
vn 0.1137 -0.5535 0.8251
vn 0.1146 -0.5553 -0.8237
vn 0.9919 0.0930 -0.0864
vn 0.8242 -0.5536 -0.1196
vn 0.2205 -0.9084 -0.3553
vn -0.8210 -0.5585 -0.1181
vn -0.3585 -0.9078 -0.2175
vn 0.3452 -0.9102 -0.2290
vn -0.2173 -0.9079 0.3586
vn -0.2178 -0.9081 -0.3577
vn 0.3640 -0.9068 0.2129
vn -0.0000 1.0000 0.0000
vn -0.9922 0.0926 0.0838
vn 0.0847 0.0943 -0.9919
vn -0.3609 -0.9076 0.2145
vn 0.2178 -0.9081 0.3578
vn 0.1856 0.8723 0.4523
vn 0.4520 0.8722 -0.1872
vn 0.1872 0.8722 -0.4520
vn -0.1872 0.8722 -0.4520
vn 0.2870 0.6616 -0.6928
vn -0.2870 0.6616 -0.6928
vn -0.4519 0.8722 -0.1872
vn -0.6928 0.6616 -0.2869
vn -0.4519 0.8722 0.1872
vn -0.6928 0.6616 0.2869
vn -0.2870 0.6616 0.6927
vn -0.1872 0.8722 0.4519
vn 0.2848 0.6611 0.6941
vn 0.4516 0.8720 0.1888
vn 0.6914 0.6621 0.2891
vn 0.6928 0.6616 -0.2869
vn 0.9935 0.0932 0.0659
vn -0.5456 0.0446 0.8369
vn 0.5537 0.0434 -0.8316
vn -0.8369 0.0445 -0.5455
vn -0.5471 0.0470 -0.8358
vn 0.8392 0.0456 0.5418
vn -0.8410 0.0477 0.5389
vn 0.5472 0.0471 0.8357
vn 0.8161 0.0432 -0.5763
usemtl Material__46
s off
f 2/1/1 4/2/1 1/3/1
f 5/4/2 7/5/2 8/6/2
f 10/7/3 12/8/3 9/9/3
f 14/10/4 16/11/4 13/12/4
f 2/1/1 3/13/1 4/2/1
f 5/4/2 6/14/2 7/5/2
f 10/7/3 11/15/3 12/8/3
f 14/10/4 15/16/4 16/11/4
s 1
f 17/17/5 19/18/6 20/19/7
f 21/20/8 23/21/9 24/22/10
f 26/23/11 28/24/12 25/25/13
f 30/26/14 32/27/15 29/28/16
f 12/29/17 18/30/18 17/31/5
f 16/32/19 24/33/10 23/34/9
f 5/35/20 25/36/13 2/37/21
f 11/38/22 29/39/16 6/40/23
f 3/41/24 34/42/24 4/43/24
f 35/44/24 8/45/24 7/46/24
f 37/47/24 10/48/24 9/49/24
f 13/50/24 40/51/24 14/52/24
f 9/49/24 40/51/24 37/47/24
f 34/42/24 13/50/24 4/43/24
f 8/45/24 33/53/24 3/41/24
f 10/48/24 35/44/24 7/46/24
f 28/24/12 2/1/21 25/25/13
f 10/48/24 32/54/24 31/55/24
f 20/19/7 12/8/17 17/17/5
f 22/56/25 16/11/19 23/21/9
f 11/57/22 31/58/26 30/26/14
f 32/27/15 6/14/23 29/28/16
f 14/52/24 20/59/24 19/60/24
f 15/16/27 19/18/6 18/61/18
f 13/50/24 21/62/24 4/43/24
f 1/63/28 21/20/8 24/22/10
f 8/45/24 28/64/24 27/65/24
f 42/66/29 44/67/30 41/68/31
f 45/69/32 34/42/33 33/53/34
f 46/70/35 33/53/34 36/71/36
f 47/72/37 36/71/36 35/44/38
f 47/72/37 38/73/39 48/74/40
f 48/74/40 37/47/41 42/66/29
f 43/75/42 37/47/41 40/51/43
f 43/75/42 39/76/44 44/67/30
f 44/67/30 34/42/33 41/68/31
f 48/74/40 46/70/35 47/72/37
f 48/74/40 41/68/31 45/69/32
f 16/32/19 12/29/17 1/77/28
f 11/38/22 5/35/20 2/37/21
f 2/37/21 12/29/17 11/38/22
f 5/4/20 27/78/45 26/23/11
f 17/17/5 18/61/18 19/18/6
f 21/20/8 22/56/25 23/21/9
f 26/23/11 27/78/45 28/24/12
f 30/26/14 31/58/26 32/27/15
f 12/29/17 15/79/27 18/30/18
f 16/32/19 1/77/28 24/33/10
f 5/35/20 26/80/11 25/36/13
f 11/38/22 30/81/14 29/39/16
f 3/41/24 33/53/24 34/42/24
f 35/44/24 36/71/24 8/45/24
f 37/47/24 38/73/24 10/48/24
f 13/50/24 39/76/24 40/51/24
f 9/49/24 14/52/24 40/51/24
f 34/42/24 39/76/24 13/50/24
f 8/45/24 36/71/24 33/53/24
f 10/48/24 38/73/24 35/44/24
f 28/24/12 3/13/46 2/1/21
f 10/48/24 7/46/24 32/54/24
f 20/19/7 9/9/47 12/8/17
f 22/56/25 13/12/48 16/11/19
f 11/57/22 10/82/49 31/58/26
f 32/27/15 7/5/50 6/14/23
f 14/52/24 9/49/24 20/59/24
f 15/16/27 14/10/51 19/18/6
f 13/50/24 22/83/24 21/62/24
f 1/63/28 4/84/52 21/20/8
f 8/45/24 3/41/24 28/64/24
f 42/66/29 43/75/42 44/67/30
f 45/69/32 41/68/31 34/42/33
f 46/70/35 45/69/32 33/53/34
f 47/72/37 46/70/35 36/71/36
f 47/72/37 35/44/38 38/73/39
f 48/74/40 38/73/39 37/47/41
f 43/75/42 42/66/29 37/47/41
f 43/75/42 40/51/43 39/76/44
f 44/67/30 39/76/44 34/42/33
f 48/74/40 45/69/32 46/70/35
f 48/74/40 42/66/29 41/68/31
f 16/32/19 15/79/27 12/29/17
f 11/38/22 6/40/23 5/35/20
f 2/37/21 1/77/28 12/29/17
f 5/4/20 8/6/53 27/78/45
